<mxfile host="Electron" modified="2023-10-19T10:50:09.425Z" agent="Mozilla/5.0 (Windows NT 10.0; Win64; x64) AppleWebKit/537.36 (KHTML, like Gecko) draw.io/22.0.3 Chrome/114.0.5735.289 Electron/25.8.4 Safari/537.36" etag="N3aDRHL7mJgxmzv77nqF" version="22.0.3" type="device">
  <diagram name="Page-1" id="ukFGb6xwwl3YrLs2a1CX">
    <mxGraphModel dx="1295" dy="888" grid="1" gridSize="10" guides="1" tooltips="1" connect="1" arrows="1" fold="1" page="1" pageScale="1" pageWidth="850" pageHeight="1100" math="0" shadow="0">
      <root>
        <mxCell id="0" />
        <mxCell id="1" parent="0" />
        <mxCell id="2uBDIJpBydurNGrXGWpo-19" value="&lt;b&gt;User&lt;/b&gt;" style="shape=umlActor;verticalLabelPosition=bottom;verticalAlign=top;html=1;outlineConnect=0;" vertex="1" parent="1">
          <mxGeometry x="30" y="340" width="50" height="90" as="geometry" />
        </mxCell>
        <mxCell id="2uBDIJpBydurNGrXGWpo-21" value="" style="swimlane;startSize=0;" vertex="1" parent="1">
          <mxGeometry x="160" y="220" width="340" height="330" as="geometry" />
        </mxCell>
        <mxCell id="2uBDIJpBydurNGrXGWpo-37" style="edgeStyle=orthogonalEdgeStyle;rounded=0;orthogonalLoop=1;jettySize=auto;html=1;exitX=0;exitY=1;exitDx=0;exitDy=0;entryX=1;entryY=0;entryDx=0;entryDy=0;dashed=1;" edge="1" parent="2uBDIJpBydurNGrXGWpo-21" source="2uBDIJpBydurNGrXGWpo-18" target="2uBDIJpBydurNGrXGWpo-2">
          <mxGeometry relative="1" as="geometry" />
        </mxCell>
        <mxCell id="2uBDIJpBydurNGrXGWpo-39" style="edgeStyle=orthogonalEdgeStyle;rounded=0;orthogonalLoop=1;jettySize=auto;html=1;exitX=0;exitY=0.5;exitDx=0;exitDy=0;entryX=1;entryY=0.5;entryDx=0;entryDy=0;dashed=1;" edge="1" parent="2uBDIJpBydurNGrXGWpo-21" source="2uBDIJpBydurNGrXGWpo-18" target="2uBDIJpBydurNGrXGWpo-17">
          <mxGeometry relative="1" as="geometry" />
        </mxCell>
        <mxCell id="2uBDIJpBydurNGrXGWpo-18" value="Log out" style="ellipse;whiteSpace=wrap;html=1;" vertex="1" parent="2uBDIJpBydurNGrXGWpo-21">
          <mxGeometry x="205" y="10" width="120" height="80" as="geometry" />
        </mxCell>
        <mxCell id="2uBDIJpBydurNGrXGWpo-36" style="edgeStyle=orthogonalEdgeStyle;rounded=0;orthogonalLoop=1;jettySize=auto;html=1;exitX=1;exitY=1;exitDx=0;exitDy=0;entryX=0;entryY=0;entryDx=0;entryDy=0;dashed=1;" edge="1" parent="2uBDIJpBydurNGrXGWpo-21" source="2uBDIJpBydurNGrXGWpo-17" target="2uBDIJpBydurNGrXGWpo-2">
          <mxGeometry relative="1" as="geometry" />
        </mxCell>
        <mxCell id="2uBDIJpBydurNGrXGWpo-40" style="edgeStyle=orthogonalEdgeStyle;rounded=0;orthogonalLoop=1;jettySize=auto;html=1;exitX=1;exitY=0.5;exitDx=0;exitDy=0;entryX=0;entryY=0.5;entryDx=0;entryDy=0;dashed=1;" edge="1" parent="2uBDIJpBydurNGrXGWpo-21" source="2uBDIJpBydurNGrXGWpo-17" target="2uBDIJpBydurNGrXGWpo-18">
          <mxGeometry relative="1" as="geometry" />
        </mxCell>
        <mxCell id="2uBDIJpBydurNGrXGWpo-17" value="Log in" style="ellipse;whiteSpace=wrap;html=1;" vertex="1" parent="2uBDIJpBydurNGrXGWpo-21">
          <mxGeometry x="15" y="10" width="120" height="80" as="geometry" />
        </mxCell>
        <mxCell id="2uBDIJpBydurNGrXGWpo-22" value="Accounts" style="text;html=1;align=center;verticalAlign=middle;resizable=0;points=[];autosize=1;strokeColor=default;fillColor=#bac8d3;strokeWidth=2;fontStyle=1" vertex="1" parent="2uBDIJpBydurNGrXGWpo-21">
          <mxGeometry x="130" y="300" width="80" height="30" as="geometry" />
        </mxCell>
        <mxCell id="2uBDIJpBydurNGrXGWpo-38" style="edgeStyle=orthogonalEdgeStyle;rounded=0;orthogonalLoop=1;jettySize=auto;html=1;exitX=1;exitY=0;exitDx=0;exitDy=0;entryX=0;entryY=1;entryDx=0;entryDy=0;dashed=1;" edge="1" parent="2uBDIJpBydurNGrXGWpo-21" source="2uBDIJpBydurNGrXGWpo-3" target="2uBDIJpBydurNGrXGWpo-2">
          <mxGeometry relative="1" as="geometry" />
        </mxCell>
        <mxCell id="2uBDIJpBydurNGrXGWpo-3" value="Connect to Spotify-Account" style="ellipse;whiteSpace=wrap;html=1;" vertex="1" parent="2uBDIJpBydurNGrXGWpo-21">
          <mxGeometry x="10" y="230" width="120" height="80" as="geometry" />
        </mxCell>
        <mxCell id="2uBDIJpBydurNGrXGWpo-32" style="edgeStyle=orthogonalEdgeStyle;rounded=0;orthogonalLoop=1;jettySize=auto;html=1;exitX=0;exitY=0;exitDx=0;exitDy=0;entryX=1;entryY=1;entryDx=0;entryDy=0;dashed=1;" edge="1" parent="2uBDIJpBydurNGrXGWpo-21" source="2uBDIJpBydurNGrXGWpo-4" target="2uBDIJpBydurNGrXGWpo-2">
          <mxGeometry relative="1" as="geometry" />
        </mxCell>
        <mxCell id="2uBDIJpBydurNGrXGWpo-4" value="Update Account" style="ellipse;whiteSpace=wrap;html=1;" vertex="1" parent="2uBDIJpBydurNGrXGWpo-21">
          <mxGeometry x="210" y="230" width="120" height="80" as="geometry" />
        </mxCell>
        <mxCell id="2uBDIJpBydurNGrXGWpo-2" value="Create Account" style="ellipse;whiteSpace=wrap;html=1;" vertex="1" parent="2uBDIJpBydurNGrXGWpo-21">
          <mxGeometry x="110" y="130" width="120" height="80" as="geometry" />
        </mxCell>
        <mxCell id="2uBDIJpBydurNGrXGWpo-29" value="" style="endArrow=none;html=1;rounded=0;" edge="1" parent="1" source="2uBDIJpBydurNGrXGWpo-2">
          <mxGeometry width="50" height="50" relative="1" as="geometry">
            <mxPoint x="130" y="418.75" as="sourcePoint" />
            <mxPoint x="80" y="390" as="targetPoint" />
          </mxGeometry>
        </mxCell>
        <mxCell id="2uBDIJpBydurNGrXGWpo-35" value="&lt;font style=&quot;font-size: 14px;&quot;&gt;1&lt;/font&gt;" style="edgeLabel;html=1;align=center;verticalAlign=middle;resizable=0;points=[];" vertex="1" connectable="0" parent="2uBDIJpBydurNGrXGWpo-29">
          <mxGeometry x="0.6561" y="3" relative="1" as="geometry">
            <mxPoint x="-13" y="-18" as="offset" />
          </mxGeometry>
        </mxCell>
        <mxCell id="2uBDIJpBydurNGrXGWpo-41" value="" style="swimlane;startSize=0;" vertex="1" parent="1">
          <mxGeometry x="620" y="190" width="980" height="430" as="geometry" />
        </mxCell>
        <mxCell id="2uBDIJpBydurNGrXGWpo-6" value="Generate Statistics" style="ellipse;whiteSpace=wrap;html=1;" vertex="1" parent="2uBDIJpBydurNGrXGWpo-41">
          <mxGeometry x="60" y="165" width="120" height="80" as="geometry" />
        </mxCell>
        <mxCell id="2uBDIJpBydurNGrXGWpo-48" style="edgeStyle=orthogonalEdgeStyle;rounded=0;orthogonalLoop=1;jettySize=auto;html=1;exitX=0.5;exitY=1;exitDx=0;exitDy=0;entryX=0.5;entryY=0;entryDx=0;entryDy=0;dashed=1;" edge="1" parent="2uBDIJpBydurNGrXGWpo-41" source="2uBDIJpBydurNGrXGWpo-16" target="2uBDIJpBydurNGrXGWpo-6">
          <mxGeometry relative="1" as="geometry" />
        </mxCell>
        <mxCell id="2uBDIJpBydurNGrXGWpo-16" value="Set Time Limits (e.g. last month, year, ... )" style="ellipse;whiteSpace=wrap;html=1;" vertex="1" parent="2uBDIJpBydurNGrXGWpo-41">
          <mxGeometry x="60" y="40" width="120" height="80" as="geometry" />
        </mxCell>
        <mxCell id="2uBDIJpBydurNGrXGWpo-49" style="edgeStyle=orthogonalEdgeStyle;rounded=0;orthogonalLoop=1;jettySize=auto;html=1;exitX=0;exitY=0.5;exitDx=0;exitDy=0;entryX=0.926;entryY=0.228;entryDx=0;entryDy=0;entryPerimeter=0;" edge="1" parent="2uBDIJpBydurNGrXGWpo-41" source="2uBDIJpBydurNGrXGWpo-9" target="2uBDIJpBydurNGrXGWpo-6">
          <mxGeometry relative="1" as="geometry">
            <Array as="points">
              <mxPoint x="295" y="65" />
              <mxPoint x="295" y="183" />
            </Array>
          </mxGeometry>
        </mxCell>
        <mxCell id="2uBDIJpBydurNGrXGWpo-9" value="Get Top 5 Most Listened to Songs" style="ellipse;whiteSpace=wrap;html=1;" vertex="1" parent="2uBDIJpBydurNGrXGWpo-41">
          <mxGeometry x="410" y="25" width="120" height="80" as="geometry" />
        </mxCell>
        <mxCell id="2uBDIJpBydurNGrXGWpo-50" style="edgeStyle=orthogonalEdgeStyle;rounded=0;orthogonalLoop=1;jettySize=auto;html=1;exitX=0;exitY=0.5;exitDx=0;exitDy=0;" edge="1" parent="2uBDIJpBydurNGrXGWpo-41" source="2uBDIJpBydurNGrXGWpo-10">
          <mxGeometry relative="1" as="geometry">
            <mxPoint x="180" y="200" as="targetPoint" />
            <Array as="points">
              <mxPoint x="320" y="170" />
              <mxPoint x="320" y="200" />
            </Array>
          </mxGeometry>
        </mxCell>
        <mxCell id="2uBDIJpBydurNGrXGWpo-10" value="Get Top 5 Most Listened to Artists" style="ellipse;whiteSpace=wrap;html=1;" vertex="1" parent="2uBDIJpBydurNGrXGWpo-41">
          <mxGeometry x="410" y="120" width="120" height="80" as="geometry" />
        </mxCell>
        <mxCell id="2uBDIJpBydurNGrXGWpo-54" style="edgeStyle=orthogonalEdgeStyle;rounded=0;orthogonalLoop=1;jettySize=auto;html=1;exitX=0;exitY=0.5;exitDx=0;exitDy=0;entryX=1;entryY=0.5;entryDx=0;entryDy=0;dashed=1;" edge="1" parent="2uBDIJpBydurNGrXGWpo-41" source="2uBDIJpBydurNGrXGWpo-15" target="2uBDIJpBydurNGrXGWpo-9">
          <mxGeometry relative="1" as="geometry" />
        </mxCell>
        <mxCell id="2uBDIJpBydurNGrXGWpo-15" value="Depict the Features of a Track" style="ellipse;whiteSpace=wrap;html=1;" vertex="1" parent="2uBDIJpBydurNGrXGWpo-41">
          <mxGeometry x="640" y="25" width="120" height="80" as="geometry" />
        </mxCell>
        <mxCell id="2uBDIJpBydurNGrXGWpo-51" style="edgeStyle=orthogonalEdgeStyle;rounded=0;orthogonalLoop=1;jettySize=auto;html=1;exitX=0;exitY=0.5;exitDx=0;exitDy=0;entryX=0.953;entryY=0.703;entryDx=0;entryDy=0;entryPerimeter=0;" edge="1" parent="2uBDIJpBydurNGrXGWpo-41" source="2uBDIJpBydurNGrXGWpo-13" target="2uBDIJpBydurNGrXGWpo-6">
          <mxGeometry relative="1" as="geometry">
            <mxPoint x="180" y="210" as="targetPoint" />
            <Array as="points">
              <mxPoint x="380" y="265" />
              <mxPoint x="380" y="220" />
              <mxPoint x="177" y="220" />
              <mxPoint x="177" y="221" />
            </Array>
          </mxGeometry>
        </mxCell>
        <mxCell id="2uBDIJpBydurNGrXGWpo-13" value="Get the Top Genre of the Playlist" style="ellipse;whiteSpace=wrap;html=1;" vertex="1" parent="2uBDIJpBydurNGrXGWpo-41">
          <mxGeometry x="410" y="225" width="120" height="80" as="geometry" />
        </mxCell>
        <mxCell id="2uBDIJpBydurNGrXGWpo-63" style="edgeStyle=orthogonalEdgeStyle;rounded=0;orthogonalLoop=1;jettySize=auto;html=1;entryX=1;entryY=1;entryDx=0;entryDy=0;" edge="1" parent="2uBDIJpBydurNGrXGWpo-41" source="2uBDIJpBydurNGrXGWpo-11" target="2uBDIJpBydurNGrXGWpo-6">
          <mxGeometry relative="1" as="geometry">
            <Array as="points">
              <mxPoint x="360" y="365" />
              <mxPoint x="360" y="233" />
              <mxPoint x="162" y="233" />
            </Array>
          </mxGeometry>
        </mxCell>
        <mxCell id="2uBDIJpBydurNGrXGWpo-11" value="Get Playlists Statistics&amp;nbsp;" style="ellipse;whiteSpace=wrap;html=1;" vertex="1" parent="2uBDIJpBydurNGrXGWpo-41">
          <mxGeometry x="410" y="325" width="120" height="80" as="geometry" />
        </mxCell>
        <mxCell id="2uBDIJpBydurNGrXGWpo-55" style="edgeStyle=orthogonalEdgeStyle;rounded=0;orthogonalLoop=1;jettySize=auto;html=1;exitX=0;exitY=0.5;exitDx=0;exitDy=0;entryX=1;entryY=0.5;entryDx=0;entryDy=0;dashed=1;" edge="1" parent="2uBDIJpBydurNGrXGWpo-41" source="2uBDIJpBydurNGrXGWpo-12" target="2uBDIJpBydurNGrXGWpo-11">
          <mxGeometry relative="1" as="geometry" />
        </mxCell>
        <mxCell id="2uBDIJpBydurNGrXGWpo-12" value="Get the Top Artists of the Playlist" style="ellipse;whiteSpace=wrap;html=1;" vertex="1" parent="2uBDIJpBydurNGrXGWpo-41">
          <mxGeometry x="640" y="325" width="120" height="80" as="geometry" />
        </mxCell>
        <mxCell id="2uBDIJpBydurNGrXGWpo-47" style="edgeStyle=orthogonalEdgeStyle;rounded=0;orthogonalLoop=1;jettySize=auto;html=1;exitX=0.5;exitY=0;exitDx=0;exitDy=0;dashed=1;" edge="1" parent="2uBDIJpBydurNGrXGWpo-41" source="2uBDIJpBydurNGrXGWpo-7" target="2uBDIJpBydurNGrXGWpo-6">
          <mxGeometry relative="1" as="geometry" />
        </mxCell>
        <mxCell id="2uBDIJpBydurNGrXGWpo-57" style="edgeStyle=orthogonalEdgeStyle;rounded=0;orthogonalLoop=1;jettySize=auto;html=1;entryX=0;entryY=0.5;entryDx=0;entryDy=0;dashed=1;" edge="1" parent="2uBDIJpBydurNGrXGWpo-41" source="2uBDIJpBydurNGrXGWpo-7" target="2uBDIJpBydurNGrXGWpo-5">
          <mxGeometry relative="1" as="geometry" />
        </mxCell>
        <mxCell id="2uBDIJpBydurNGrXGWpo-7" value="Update Statistics" style="ellipse;whiteSpace=wrap;html=1;" vertex="1" parent="2uBDIJpBydurNGrXGWpo-41">
          <mxGeometry x="60" y="305" width="120" height="80" as="geometry" />
        </mxCell>
        <mxCell id="2uBDIJpBydurNGrXGWpo-56" style="edgeStyle=orthogonalEdgeStyle;rounded=0;orthogonalLoop=1;jettySize=auto;html=1;exitX=0;exitY=0.5;exitDx=0;exitDy=0;entryX=1;entryY=0.5;entryDx=0;entryDy=0;" edge="1" parent="2uBDIJpBydurNGrXGWpo-41" source="2uBDIJpBydurNGrXGWpo-14" target="2uBDIJpBydurNGrXGWpo-12">
          <mxGeometry relative="1" as="geometry" />
        </mxCell>
        <mxCell id="2uBDIJpBydurNGrXGWpo-14" value="Get the Amout of Tracks of Each Represented Genre" style="ellipse;whiteSpace=wrap;html=1;" vertex="1" parent="2uBDIJpBydurNGrXGWpo-41">
          <mxGeometry x="840" y="325" width="120" height="80" as="geometry" />
        </mxCell>
        <mxCell id="2uBDIJpBydurNGrXGWpo-46" style="edgeStyle=orthogonalEdgeStyle;rounded=0;orthogonalLoop=1;jettySize=auto;html=1;exitX=0;exitY=0;exitDx=0;exitDy=0;entryX=0.721;entryY=0.97;entryDx=0;entryDy=0;dashed=1;entryPerimeter=0;" edge="1" parent="2uBDIJpBydurNGrXGWpo-41" source="2uBDIJpBydurNGrXGWpo-5" target="2uBDIJpBydurNGrXGWpo-6">
          <mxGeometry relative="1" as="geometry">
            <Array as="points">
              <mxPoint x="248" y="280" />
              <mxPoint x="147" y="280" />
              <mxPoint x="147" y="243" />
            </Array>
          </mxGeometry>
        </mxCell>
        <mxCell id="2uBDIJpBydurNGrXGWpo-5" value="Display Listening Statistics" style="ellipse;whiteSpace=wrap;html=1;" vertex="1" parent="2uBDIJpBydurNGrXGWpo-41">
          <mxGeometry x="230" y="305" width="120" height="80" as="geometry" />
        </mxCell>
        <mxCell id="2uBDIJpBydurNGrXGWpo-64" value="Statistics" style="text;html=1;align=center;verticalAlign=middle;resizable=0;points=[];autosize=1;strokeColor=default;fillColor=#bac8d3;strokeWidth=2;fontStyle=1" vertex="1" parent="2uBDIJpBydurNGrXGWpo-41">
          <mxGeometry x="220" width="80" height="30" as="geometry" />
        </mxCell>
        <mxCell id="2uBDIJpBydurNGrXGWpo-42" value="" style="endArrow=none;html=1;rounded=0;entryX=-0.021;entryY=0.417;entryDx=0;entryDy=0;entryPerimeter=0;" edge="1" parent="1" target="2uBDIJpBydurNGrXGWpo-6">
          <mxGeometry width="50" height="50" relative="1" as="geometry">
            <mxPoint x="500" y="390" as="sourcePoint" />
            <mxPoint x="550" y="340" as="targetPoint" />
          </mxGeometry>
        </mxCell>
        <mxCell id="2uBDIJpBydurNGrXGWpo-60" value="Get the Amout of Tracks of Each Represented Genre" style="ellipse;whiteSpace=wrap;html=1;" vertex="1" parent="1">
          <mxGeometry x="1260" y="515" width="120" height="80" as="geometry" />
        </mxCell>
        <mxCell id="2uBDIJpBydurNGrXGWpo-61" value="" style="edgeStyle=orthogonalEdgeStyle;rounded=0;orthogonalLoop=1;jettySize=auto;html=1;dashed=1;" edge="1" parent="1" source="2uBDIJpBydurNGrXGWpo-14" target="2uBDIJpBydurNGrXGWpo-60">
          <mxGeometry relative="1" as="geometry" />
        </mxCell>
      </root>
    </mxGraphModel>
  </diagram>
</mxfile>
